<svg width="292" height="114" viewBox="0 0 292 114" fill="none" xmlns="http://www.w3.org/2000/svg">
<path d="M42.1328 65.1094L34.1875 49.2188L26.2422 65.1094H42.1328ZM7.70312 81L34.1875 28.0312L60.6719 81H50.0781L47.4297 75.7031H20.9453L18.2969 81H7.70312ZM82.7069 81C79.7274 81 77.2169 79.9792 75.1754 77.9377C73.1339 75.8411 72.1131 73.3306 72.1131 70.4062V65.1094H82.7069C82.7069 66.5991 83.2035 67.8682 84.1966 68.9165C85.245 69.9097 86.514 70.4062 88.0037 70.4062H109.191C110.626 70.4062 111.867 69.9097 112.916 68.9165C113.964 67.8682 114.488 66.5991 114.488 65.1094C114.488 63.6748 113.964 62.4333 112.916 61.385C111.867 60.3367 110.626 59.8125 109.191 59.8125H82.7069C79.7274 59.8125 77.2169 58.7917 75.1754 56.7502C73.1339 54.6536 72.1131 52.1431 72.1131 49.2188V38.625C72.1131 35.7007 73.1339 33.2178 75.1754 31.1763C77.2721 29.0796 79.7826 28.0312 82.7069 28.0312H114.488C117.412 28.0312 119.895 29.0796 121.937 31.1763C124.034 33.2729 125.082 35.7559 125.082 38.625V43.9219H114.488C114.488 42.4873 113.964 41.2458 112.916 40.1975C111.867 39.1492 110.626 38.625 109.191 38.625H88.0037C86.514 38.625 85.245 39.1492 84.1966 40.1975C83.2035 41.2458 82.7069 42.4873 82.7069 43.9219C82.7069 45.4116 83.2035 46.6807 84.1966 47.729C85.245 48.7222 86.514 49.2188 88.0037 49.2188H114.488C117.412 49.2188 119.895 50.2671 121.937 52.3638C124.034 54.4604 125.082 56.9434 125.082 59.8125V70.4062C125.082 73.3857 124.034 75.8962 121.937 77.9377C119.84 79.9792 117.357 81 114.488 81H82.7069ZM141.82 81V28.0312H152.414L189.492 65.1094V28.0312H200.086V81H189.492L152.414 43.9219V81H141.82ZM245.957 65.1094L238.011 49.2188L230.066 65.1094H245.957ZM211.527 81L238.011 28.0312L264.496 81H253.902L251.253 75.7031H224.769L222.121 81H211.527Z" fill="white"/>
<rect x="22" y="92" width="258" height="7" fill="#FFB510"/>
<rect x="12" y="15" width="127.125" height="7.0625" fill="#FFB510"/>
</svg>
